<?xml version="1.0" standalone="no"?><!DOCTYPE svg PUBLIC "-//W3C//DTD SVG 1.1//EN" "http://www.w3.org/Graphics/SVG/1.1/DTD/svg11.dtd"><svg t="1760601992167" class="icon" viewBox="0 0 1024 1024" version="1.1" xmlns="http://www.w3.org/2000/svg" p-id="20760" width="256" height="256" xmlns:xlink="http://www.w3.org/1999/xlink"><path d="M706.678 242.83l74.9 74.9a12.223 12.223 0 0 1 0 17.3l-6.208 6.207a12.223 12.223 0 0 1-17.3 0l-74.9-74.9a12.223 12.223 0 0 1 0-17.3l6.208-6.207c4.783-4.682 12.517-4.682 17.3 0z m36.228-36.229l74.9 74.9a12.223 12.223 0 0 1 0 17.3l-6.208 6.207a12.223 12.223 0 0 1-17.3 0l-74.9-74.9a12.223 12.223 0 0 1 0-17.3l6.208-6.207a12.223 12.223 0 0 1 17.3 0z m36.33-36.229l74.9 74.9a12.223 12.223 0 0 1 0 17.3l-6.207 6.208a12.223 12.223 0 0 1-17.3 0l-75.002-74.9a12.223 12.223 0 0 1 0-17.3l6.208-6.208c4.885-4.783 12.619-4.783 17.402 0z m-585.56 584.95l74.9 74.9a12.223 12.223 0 0 1 0 17.3l-6.207 6.207a12.223 12.223 0 0 1-17.3 0l-74.9-74.9a12.223 12.223 0 0 1 0-17.3l6.208-6.207a12.223 12.223 0 0 1 17.3 0z m36.23-36.229l74.899 74.9a12.223 12.223 0 0 1 0 17.3l-6.208 6.208a12.223 12.223 0 0 1-17.3 0l-74.9-74.9a12.223 12.223 0 0 1 0-17.3l6.208-6.208c4.885-4.783 12.62-4.783 17.3 0z m36.33-36.33l74.9 74.9a12.223 12.223 0 0 1 0 17.3l-6.208 6.207a12.223 12.223 0 0 1-17.3 0l-74.9-74.9a12.223 12.223 0 0 1 0-17.3l6.208-6.207c4.783-4.681 12.517-4.681 17.3 0z m515.036 23.813l-74.9 74.9a12.223 12.223 0 0 1-17.3 0l-6.207-6.208a12.223 12.223 0 0 1 0-17.3l74.9-74.9a12.223 12.223 0 0 1 17.3 0l6.207 6.208a12.223 12.223 0 0 1 0 17.3z m36.33 36.229l-74.899 74.9a12.223 12.223 0 0 1-17.3 0l-6.208-6.208a12.223 12.223 0 0 1 0-17.3l74.9-74.9a12.223 12.223 0 0 1 17.3 0l6.208 6.208c4.68 4.884 4.68 12.619 0 17.3z m36.23 36.33l-74.9 74.9a12.223 12.223 0 0 1-17.3 0l-6.208-6.208a12.223 12.223 0 0 1 0-17.3l74.9-74.9a12.223 12.223 0 0 1 17.3 0l6.207 6.208a12.223 12.223 0 0 1 0 17.3zM268.78 193.575l-74.9 74.9a12.223 12.223 0 0 1-17.3 0l-6.208-6.208a12.223 12.223 0 0 1 0-17.3l74.9-74.9a12.223 12.223 0 0 1 17.3 0l6.208 6.208c4.783 4.885 4.783 12.619 0 17.3z m36.33 36.33l-74.9 74.9a12.223 12.223 0 0 1-17.3 0l-6.207-6.208a12.223 12.223 0 0 1 0-17.3l74.9-74.9a12.223 12.223 0 0 1 17.3 0l6.207 6.208a12.223 12.223 0 0 1 0 17.3z m36.229 36.229l-74.9 74.9a12.223 12.223 0 0 1-17.3 0l-6.208-6.208a12.223 12.223 0 0 1 0-17.3l74.9-74.9a12.223 12.223 0 0 1 17.3 0l6.208 6.208a12.223 12.223 0 0 1 0 17.3zM839.99 459.285v105.938c0 6.717-5.495 12.212-12.212 12.212h-8.853c-6.717 0-12.212-5.495-12.212-12.212V459.285c0-6.716 5.495-12.212 12.212-12.212h8.853c6.717 0 12.212 5.496 12.212 12.212z m51.29 0v105.938c0 6.717-5.495 12.212-12.212 12.212h-8.854c-6.716 0-12.211-5.495-12.211-12.212V459.285c0-6.716 5.495-12.212 12.211-12.212h8.854c6.717 0 12.212 5.496 12.212 12.212z m51.29 0v105.938c0 6.717-5.495 12.212-12.212 12.212h-8.854c-6.716 0-12.211-5.495-12.211-12.212V459.285c0-6.716 5.495-12.212 12.211-12.212h8.854c6.818 0 12.212 5.496 12.212 12.212z m-827.661-0.407v105.938c0 6.717-5.495 12.212-12.212 12.212h-8.853c-6.717 0-12.212-5.495-12.212-12.212V458.878c0-6.716 5.495-12.212 12.212-12.212h8.853c6.717 0 12.212 5.496 12.212 12.212z m51.29 0v105.938c0 6.717-5.495 12.212-12.212 12.212h-8.854c-6.716 0-12.211-5.495-12.211-12.212V458.878c0-6.716 5.495-12.212 12.211-12.212h8.854c6.717 0 12.212 5.496 12.212 12.212z m51.29 0v105.938c0 6.717-5.495 12.212-12.212 12.212h-8.854c-6.716 0-12.212-5.495-12.212-12.212V458.878c0-6.716 5.496-12.212 12.212-12.212h8.854c6.717 0 12.212 5.496 12.212 12.212zM564.918 839.89H458.98c-6.717 0-12.212-5.495-12.212-12.212v-8.853c0-6.717 5.496-12.212 12.212-12.212h105.938c6.717 0 12.212 5.495 12.212 12.212v8.853a12.182 12.182 0 0 1-12.212 12.212z m0 51.392H458.98c-6.717 0-12.212-5.495-12.212-12.212v-8.854c0-6.716 5.496-12.211 12.212-12.211h105.938c6.717 0 12.212 5.495 12.212 12.211v8.854c0 6.717-5.495 12.212-12.212 12.212z m0 51.29H458.98c-6.717 0-12.212-5.495-12.212-12.212v-8.854c0-6.716 5.496-12.212 12.212-12.212h105.938c6.717 0 12.212 5.496 12.212 12.212v8.854c0 6.717-5.495 12.212-12.212 12.212z m0.305-827.763H459.387c-6.716 0-12.212-5.495-12.212-12.212v-8.853c0-6.717 5.496-12.212 12.212-12.212h105.836c6.717 0 12.212 5.495 12.212 12.212v8.853a12.182 12.182 0 0 1-12.212 12.212z m0 51.29H459.387c-6.716 0-12.212-5.495-12.212-12.212v-8.853c0-6.717 5.496-12.212 12.212-12.212h105.836c6.717 0 12.212 5.495 12.212 12.212v8.853a12.182 12.182 0 0 1-12.212 12.212z m0 51.29H459.387c-6.716 0-12.212-5.495-12.212-12.212v-8.853c0-6.717 5.496-12.212 12.212-12.212h105.836c6.717 0 12.212 5.495 12.212 12.212v8.853a12.182 12.182 0 0 1-12.212 12.212z m-89.96 174.222a36.737 36.737 0 1 0 73.474 0 36.737 36.737 0 1 0-73.474 0zM510.98 272.44h0.61z m0.82 0c66.148 0.102 119.67 53.632 119.67 119.78 0 66.046-53.424 119.678-119.47 119.78h-0.31c-66.148 0-119.77 53.632-119.77 119.78 0 65.944 53.318 119.475 119.16 119.78h0.92c132.295 0 239.66-107.263 239.66-239.66S644.295 272.44 512 272.44z m-1.57 322.7a36.737 36.737 0 0 1 37.8 36.74 36.74 36.74 0 1 1-73.48 0 36.737 36.737 0 0 1 35.68-36.74z m1.872-322.29c132.092 0 239.15 107.058 239.15 239.15 0 132.092-107.058 239.15-239.15 239.15-132.092 0-239.15-107.058-239.15-239.15 0-132.092 107.058-239.15 239.15-239.15m0-25.441c-35.72 0-70.32 7.022-102.987 20.76-31.548 13.332-59.838 32.362-84.059 56.684-24.322 24.322-43.352 52.613-56.683 84.058-13.84 32.667-20.76 67.267-20.76 102.987s7.021 70.32 20.76 102.987c13.331 31.548 32.361 59.838 56.683 84.059 24.322 24.322 52.613 43.352 84.059 56.683 32.667 13.84 67.267 20.76 102.987 20.76s70.32-7.021 102.987-20.76c31.547-13.331 59.838-32.361 84.058-56.683 24.322-24.322 43.352-52.613 56.684-84.059 13.84-32.667 20.76-67.267 20.76-102.987s-7.022-70.32-20.76-102.987c-13.332-31.547-32.362-59.838-56.684-84.058-24.322-24.322-52.613-43.352-84.058-56.684-32.565-13.738-67.267-20.76-102.987-20.76z m1.12 504.25h-0.713z m189.894-700.76l270.188 270.087v382.028L703.116 973.202H321.087L50.9 703.116v-382.13L321.087 50.899h382.03M713.7 25.458H310.504L25.458 310.504v403.094l285.046 285.046h403.094l285.148-285.046V310.504z" p-id="20761"></path></svg>